<svg id="visual" viewBox="0 0 960 540" width="960" height="540" xmlns="http://www.w3.org/2000/svg" xmlns:xlink="http://www.w3.org/1999/xlink" version="1.1"><rect x="0" y="0" width="960" height="540" fill="#2980b9"></rect><path d="M0 31L12.3 31.8C24.7 32.7 49.3 34.3 74 38.7C98.7 43 123.3 50 148 54.2C172.7 58.3 197.3 59.7 221.8 53.7C246.3 47.7 270.7 34.3 295.2 35.8C319.7 37.3 344.3 53.7 369 58.2C393.7 62.7 418.3 55.3 443 50.2C467.7 45 492.3 42 517 46C541.7 50 566.3 61 591 68.7C615.7 76.3 640.3 80.7 664.8 80.7C689.3 80.7 713.7 76.3 738.2 68.8C762.7 61.3 787.3 50.7 812 53.5C836.7 56.3 861.3 72.7 886 70.2C910.7 67.7 935.3 46.3 947.7 35.7L960 25L960 541L947.7 541C935.3 541 910.7 541 886 541C861.3 541 836.7 541 812 541C787.3 541 762.7 541 738.2 541C713.7 541 689.3 541 664.8 541C640.3 541 615.7 541 591 541C566.3 541 541.7 541 517 541C492.3 541 467.7 541 443 541C418.3 541 393.7 541 369 541C344.3 541 319.7 541 295.2 541C270.7 541 246.3 541 221.8 541C197.3 541 172.7 541 148 541C123.3 541 98.7 541 74 541C49.3 541 24.7 541 12.3 541L0 541Z" fill="#2980b9"></path><path d="M0 76L12.3 84C24.7 92 49.3 108 74 113.3C98.7 118.7 123.3 113.3 148 115.7C172.7 118 197.3 128 221.8 126.5C246.3 125 270.7 112 295.2 112.3C319.7 112.7 344.3 126.3 369 129.3C393.7 132.3 418.3 124.7 443 120.7C467.7 116.7 492.3 116.3 517 114.5C541.7 112.7 566.3 109.3 591 110.2C615.7 111 640.3 116 664.8 121.3C689.3 126.7 713.7 132.3 738.2 125.2C762.7 118 787.3 98 812 87.8C836.7 77.7 861.3 77.3 886 79C910.7 80.7 935.3 84.3 947.7 86.2L960 88L960 541L947.7 541C935.3 541 910.7 541 886 541C861.3 541 836.7 541 812 541C787.3 541 762.7 541 738.2 541C713.7 541 689.3 541 664.8 541C640.3 541 615.7 541 591 541C566.3 541 541.7 541 517 541C492.3 541 467.7 541 443 541C418.3 541 393.7 541 369 541C344.3 541 319.7 541 295.2 541C270.7 541 246.3 541 221.8 541C197.3 541 172.7 541 148 541C123.3 541 98.7 541 74 541C49.3 541 24.7 541 12.3 541L0 541Z" fill="#2d77ab"></path><path d="M0 165L12.3 162.2C24.7 159.3 49.3 153.7 74 147.5C98.7 141.3 123.3 134.7 148 138.8C172.7 143 197.3 158 221.8 160.7C246.3 163.3 270.7 153.7 295.2 151.5C319.7 149.3 344.3 154.7 369 154C393.7 153.3 418.3 146.7 443 152.3C467.7 158 492.3 176 517 183.7C541.7 191.3 566.3 188.7 591 180.3C615.7 172 640.3 158 664.8 158.3C689.3 158.7 713.7 173.3 738.2 178.7C762.7 184 787.3 180 812 174.7C836.7 169.3 861.3 162.7 886 158.7C910.7 154.7 935.3 153.3 947.7 152.7L960 152L960 541L947.7 541C935.3 541 910.7 541 886 541C861.3 541 836.7 541 812 541C787.3 541 762.7 541 738.2 541C713.7 541 689.3 541 664.8 541C640.3 541 615.7 541 591 541C566.3 541 541.7 541 517 541C492.3 541 467.7 541 443 541C418.3 541 393.7 541 369 541C344.3 541 319.7 541 295.2 541C270.7 541 246.3 541 221.8 541C197.3 541 172.7 541 148 541C123.3 541 98.7 541 74 541C49.3 541 24.7 541 12.3 541L0 541Z" fill="#2f6f9e"></path><path d="M0 181L12.3 180.7C24.7 180.3 49.3 179.7 74 190.7C98.7 201.7 123.3 224.3 148 228.8C172.7 233.3 197.3 219.7 221.8 211.2C246.3 202.7 270.7 199.3 295.2 197C319.7 194.7 344.3 193.3 369 201.7C393.7 210 418.3 228 443 230.7C467.7 233.3 492.3 220.7 517 219.3C541.7 218 566.3 228 591 223.7C615.7 219.3 640.3 200.7 664.8 202.5C689.3 204.3 713.7 226.7 738.2 235.5C762.7 244.3 787.3 239.7 812 237.2C836.7 234.7 861.3 234.3 886 233.5C910.7 232.7 935.3 231.3 947.7 230.7L960 230L960 541L947.7 541C935.3 541 910.7 541 886 541C861.3 541 836.7 541 812 541C787.3 541 762.7 541 738.2 541C713.7 541 689.3 541 664.8 541C640.3 541 615.7 541 591 541C566.3 541 541.7 541 517 541C492.3 541 467.7 541 443 541C418.3 541 393.7 541 369 541C344.3 541 319.7 541 295.2 541C270.7 541 246.3 541 221.8 541C197.3 541 172.7 541 148 541C123.3 541 98.7 541 74 541C49.3 541 24.7 541 12.3 541L0 541Z" fill="#316690"></path><path d="M0 293L12.3 293.7C24.7 294.3 49.3 295.7 74 287C98.7 278.3 123.3 259.7 148 252C172.7 244.3 197.3 247.7 221.8 246.2C246.3 244.7 270.7 238.3 295.2 246C319.7 253.7 344.3 275.3 369 282.2C393.7 289 418.3 281 443 278.3C467.7 275.7 492.3 278.3 517 282.2C541.7 286 566.3 291 591 292C615.7 293 640.3 290 664.8 287.7C689.3 285.3 713.7 283.7 738.2 286C762.7 288.3 787.3 294.7 812 296.8C836.7 299 861.3 297 886 291.5C910.7 286 935.3 277 947.7 272.5L960 268L960 541L947.7 541C935.3 541 910.7 541 886 541C861.3 541 836.7 541 812 541C787.3 541 762.7 541 738.2 541C713.7 541 689.3 541 664.8 541C640.3 541 615.7 541 591 541C566.3 541 541.7 541 517 541C492.3 541 467.7 541 443 541C418.3 541 393.7 541 369 541C344.3 541 319.7 541 295.2 541C270.7 541 246.3 541 221.8 541C197.3 541 172.7 541 148 541C123.3 541 98.7 541 74 541C49.3 541 24.7 541 12.3 541L0 541Z" fill="#315e83"></path><path d="M0 311L12.3 318C24.7 325 49.3 339 74 339.2C98.7 339.3 123.3 325.7 148 316.5C172.7 307.3 197.3 302.7 221.8 310.7C246.3 318.7 270.7 339.3 295.2 347C319.7 354.7 344.3 349.3 369 341.5C393.7 333.7 418.3 323.3 443 320C467.7 316.7 492.3 320.3 517 325.2C541.7 330 566.3 336 591 331.3C615.7 326.7 640.3 311.3 664.8 306C689.3 300.7 713.7 305.3 738.2 311.7C762.7 318 787.3 326 812 333.3C836.7 340.7 861.3 347.3 886 345.7C910.7 344 935.3 334 947.7 329L960 324L960 541L947.7 541C935.3 541 910.7 541 886 541C861.3 541 836.7 541 812 541C787.3 541 762.7 541 738.2 541C713.7 541 689.3 541 664.8 541C640.3 541 615.7 541 591 541C566.3 541 541.7 541 517 541C492.3 541 467.7 541 443 541C418.3 541 393.7 541 369 541C344.3 541 319.7 541 295.2 541C270.7 541 246.3 541 221.8 541C197.3 541 172.7 541 148 541C123.3 541 98.7 541 74 541C49.3 541 24.7 541 12.3 541L0 541Z" fill="#315676"></path><path d="M0 402L12.3 397.3C24.7 392.7 49.3 383.3 74 385C98.7 386.7 123.3 399.3 148 394.5C172.7 389.7 197.3 367.3 221.8 360.8C246.3 354.3 270.7 363.7 295.2 362.7C319.7 361.7 344.3 350.3 369 347.5C393.7 344.7 418.3 350.3 443 359.7C467.7 369 492.3 382 517 379.3C541.7 376.7 566.3 358.3 591 352.3C615.7 346.3 640.3 352.7 664.8 361C689.3 369.3 713.7 379.7 738.2 378.7C762.7 377.7 787.3 365.3 812 362.2C836.7 359 861.3 365 886 372.2C910.7 379.3 935.3 387.7 947.7 391.8L960 396L960 541L947.7 541C935.3 541 910.7 541 886 541C861.3 541 836.7 541 812 541C787.3 541 762.7 541 738.2 541C713.7 541 689.3 541 664.8 541C640.3 541 615.7 541 591 541C566.3 541 541.7 541 517 541C492.3 541 467.7 541 443 541C418.3 541 393.7 541 369 541C344.3 541 319.7 541 295.2 541C270.7 541 246.3 541 221.8 541C197.3 541 172.7 541 148 541C123.3 541 98.7 541 74 541C49.3 541 24.7 541 12.3 541L0 541Z" fill="#304e69"></path><path d="M0 452L12.3 452.7C24.7 453.3 49.3 454.7 74 451.7C98.7 448.7 123.3 441.3 148 442.2C172.7 443 197.3 452 221.8 451C246.3 450 270.7 439 295.2 427.8C319.7 416.7 344.3 405.3 369 410.3C393.7 415.3 418.3 436.7 443 442.7C467.7 448.7 492.3 439.3 517 430C541.7 420.7 566.3 411.3 591 407C615.7 402.7 640.3 403.3 664.8 408.8C689.3 414.3 713.7 424.7 738.2 435.2C762.7 445.7 787.3 456.3 812 453.7C836.7 451 861.3 435 886 424.7C910.7 414.3 935.3 409.7 947.7 407.3L960 405L960 541L947.7 541C935.3 541 910.7 541 886 541C861.3 541 836.7 541 812 541C787.3 541 762.7 541 738.2 541C713.7 541 689.3 541 664.8 541C640.3 541 615.7 541 591 541C566.3 541 541.7 541 517 541C492.3 541 467.7 541 443 541C418.3 541 393.7 541 369 541C344.3 541 319.7 541 295.2 541C270.7 541 246.3 541 221.8 541C197.3 541 172.7 541 148 541C123.3 541 98.7 541 74 541C49.3 541 24.7 541 12.3 541L0 541Z" fill="#2e465c"></path><path d="M0 460L12.3 461.3C24.7 462.7 49.3 465.3 74 464.2C98.7 463 123.3 458 148 459.2C172.7 460.3 197.3 467.7 221.8 470.3C246.3 473 270.7 471 295.2 467.5C319.7 464 344.3 459 369 466.8C393.7 474.7 418.3 495.3 443 506.8C467.7 518.3 492.3 520.7 517 515C541.7 509.3 566.3 495.7 591 493.3C615.7 491 640.3 500 664.8 506.5C689.3 513 713.7 517 738.2 510.5C762.7 504 787.3 487 812 478.3C836.7 469.7 861.3 469.3 886 466.7C910.7 464 935.3 459 947.7 456.5L960 454L960 541L947.7 541C935.3 541 910.7 541 886 541C861.3 541 836.7 541 812 541C787.3 541 762.7 541 738.2 541C713.7 541 689.3 541 664.8 541C640.3 541 615.7 541 591 541C566.3 541 541.7 541 517 541C492.3 541 467.7 541 443 541C418.3 541 393.7 541 369 541C344.3 541 319.7 541 295.2 541C270.7 541 246.3 541 221.8 541C197.3 541 172.7 541 148 541C123.3 541 98.7 541 74 541C49.3 541 24.7 541 12.3 541L0 541Z" fill="#2c3e50"></path></svg>